<?xml version="1.0" standalone="no"?>
<!DOCTYPE svg PUBLIC "-//W3C//DTD SVG 20010904//EN"
 "http://www.w3.org/TR/2001/REC-SVG-20010904/DTD/svg10.dtd">
<svg version="1.0" xmlns="http://www.w3.org/2000/svg"
 width="218.000000pt" height="232.000000pt" viewBox="0 0 218.000000 232.000000"
 preserveAspectRatio="xMidYMid meet">

<g transform="translate(0.000000,232.000000) scale(0.100000,-0.100000)"
fill="#FFFFFF" stroke="none">
<path d="M832 2303 c-36 -17 -75 -64 -87 -100 -6 -21 -13 -23 -71 -23 l-64 0
0 -65 0 -65 -240 0 -240 0 0 -1025 0 -1025 765 0 765 0 0 70 0 70 -54 0 c-45
0 -54 -3 -59 -20 -5 -20 -14 -20 -651 -20 l-646 0 0 920 0 920 650 0 650 0 0
-345 0 -345 55 0 55 0 0 400 0 400 -235 0 -235 0 0 65 0 65 -64 0 -63 0 -24
48 c-41 79 -132 112 -207 75z"/>
<path d="M763 1783 c-51 -4 -55 -6 -119 -79 -64 -71 -69 -74 -111 -74 -89 0
-112 -28 -129 -157 -6 -45 -4 -52 14 -62 11 -6 46 -11 76 -11 52 0 57 -2 71
-31 20 -37 72 -61 115 -53 28 6 80 54 80 75 0 5 54 9 123 9 l122 0 17 -30 c20
-36 74 -62 109 -53 29 7 79 51 79 70 0 10 21 13 83 13 117 0 127 15 80 109
-33 64 -54 79 -135 98 -53 12 -71 23 -140 86 -43 39 -84 75 -91 78 -16 9 -180
17 -244 12z m75 -110 l-3 -68 -65 -3 c-36 -2 -80 0 -98 3 l-32 6 45 59 c51 66
54 68 113 69 l43 1 -3 -67z m203 1 c32 -32 59 -62 59 -67 0 -4 -51 -6 -112 -5
l-113 3 -3 69 -3 69 56 -5 c53 -4 60 -8 116 -64z m-337 -216 c33 -47 7 -98
-50 -98 -34 0 -64 28 -64 60 0 32 30 60 65 60 24 0 39 -7 49 -22z m450 3 c11
-12 16 -31 14 -52 -7 -78 -117 -68 -118 10 0 54 68 82 104 42z"/>
<path d="M1495 1136 c-131 -32 -242 -121 -302 -244 -38 -75 -38 -77 -38 -197
0 -120 0 -122 38 -197 45 -92 122 -167 217 -212 61 -29 72 -31 185 -31 114 0
123 2 188 32 387 184 331 750 -84 848 -76 17 -135 18 -204 1z m425 -280 c10
-13 -18 -47 -181 -216 -107 -110 -204 -207 -216 -215 -22 -15 -27 -11 -143
102 l-121 117 58 58 57 58 61 -60 c33 -33 64 -60 69 -60 4 0 75 70 158 155
l150 155 48 -40 c26 -22 53 -46 60 -54z"/>
<path d="M394 1101 c-2 -2 -4 -44 -4 -93 l0 -88 348 0 348 0 16 34 c9 18 37
58 62 89 25 31 46 58 46 60 0 4 -811 3 -816 -2z"/>
<path d="M390 590 l0 -90 341 0 341 0 -6 23 c-3 12 -12 52 -18 90 l-12 67
-323 0 -323 0 0 -90z"/>
</g>
</svg>